<?xml version="1.0" standalone="no"?>
<!DOCTYPE svg PUBLIC "-//W3C//DTD SVG 20010904//EN"
 "http://www.w3.org/TR/2001/REC-SVG-20010904/DTD/svg10.dtd">
<svg version="1.0" xmlns="http://www.w3.org/2000/svg"
 width="643.000000pt" height="388.000000pt" viewBox="0 0 643.000000 388.000000"
 preserveAspectRatio="xMidYMid meet">

<g transform="translate(0.000000,388.000000) scale(0.100000,-0.100000)"
fill="#000000" stroke="none">
<path d="M1880 3641 c-51 -16 -108 -51 -126 -78 -14 -20 -19 -46 -18 -93 0
-57 6 -77 47 -160 51 -102 55 -122 32 -142 -9 -7 -26 -23 -38 -35 -12 -11 -51
-30 -87 -42 -175 -54 -170 -51 -237 -140 -35 -45 -63 -84 -63 -87 0 -3 -12
-21 -26 -40 -15 -19 -24 -37 -21 -40 3 -4 -17 -27 -44 -52 -80 -73 -81 -76
-80 -304 1 -109 7 -222 13 -251 6 -29 11 -72 12 -97 1 -43 3 -46 51 -72 28
-14 57 -27 66 -27 27 -2 42 -27 30 -49 -17 -31 15 -37 44 -8 30 30 39 64 31
119 -7 44 -16 52 -99 86 -27 11 -28 13 -21 59 3 26 12 74 20 107 8 33 17 110
20 170 7 120 18 145 56 122 17 -10 23 -8 49 21 24 27 29 41 30 85 0 28 4 72 8
97 8 43 9 42 10 -25 0 -39 8 -95 16 -125 27 -95 47 -183 52 -233 3 -26 11 -51
17 -54 6 -4 56 -7 111 -6 l100 1 -107 -10 c-60 -6 -108 -14 -108 -18 0 -9 52
-20 98 -20 19 0 33 -3 30 -6 -4 -3 -35 -6 -70 -6 l-63 0 -45 -96 c-61 -129
-72 -183 -74 -342 l-1 -135 25 1 c14 1 57 4 95 8 64 5 66 5 25 -5 -25 -6 -62
-15 -82 -20 l-38 -10 0 -137 c0 -75 -4 -143 -9 -150 -7 -11 -17 -11 -57 3 -27
9 -87 22 -132 28 -99 13 -197 -3 -372 -60 -83 -27 -127 -36 -212 -40 -93 -5
-108 -4 -108 10 0 18 -12 23 -74 32 -97 15 -123 -16 -111 -132 6 -58 3 -79
-19 -145 -38 -112 -33 -193 14 -218 11 -6 30 -8 41 -5 16 5 19 12 14 35 -3 16
0 43 8 62 17 41 129 163 166 183 42 21 769 13 876 -10 139 -30 172 -22 200 52
10 26 21 53 25 58 19 25 110 256 110 277 0 40 22 142 33 153 9 10 7 -20 -9
-130 l-5 -40 146 -95 c81 -52 174 -113 208 -135 34 -21 89 -67 122 -100 52
-54 63 -71 83 -137 27 -94 59 -137 182 -245 52 -46 132 -120 178 -165 79 -78
83 -84 77 -118 -5 -30 1 -45 37 -100 52 -78 69 -83 147 -42 69 37 110 49 180
55 50 4 56 2 92 -30 46 -42 76 -102 84 -166 3 -26 10 -59 15 -72 13 -33 69
-48 145 -38 50 7 60 11 63 29 2 12 -8 34 -21 50 -39 47 -50 97 -43 188 l7 81
82 77 c45 43 140 117 210 165 71 47 145 106 165 130 22 27 59 54 92 70 70 32
110 71 167 158 25 39 62 90 82 115 20 24 59 78 86 120 33 49 57 76 72 78 17 3
29 21 53 80 17 42 35 87 40 99 l9 22 53 -18 c61 -21 149 -56 193 -76 17 -8 50
-19 75 -25 25 -6 53 -13 62 -16 13 -4 21 2 27 20 9 23 12 24 43 14 18 -6 39
-13 46 -14 20 -6 4 -24 -20 -24 -59 0 -140 -63 -280 -221 -33 -38 -81 -85
-106 -106 -41 -33 -50 -36 -113 -38 -97 -1 -102 -9 -110 -145 -5 -83 -12 -119
-28 -150 -27 -52 -27 -68 5 -124 25 -45 60 -66 83 -51 6 3 11 29 11 56 0 44 6
60 49 122 27 40 52 82 55 94 4 12 24 32 44 44 20 13 51 34 67 49 17 14 62 47
101 72 70 47 102 65 284 161 52 27 113 62 135 77 105 71 184 120 195 120 17 0
53 88 46 114 -6 26 -191 191 -263 235 -84 52 -88 50 -126 -58 -18 -52 -38 -96
-45 -99 -14 -4 2 46 50 155 17 39 28 77 26 85 -3 7 -52 33 -109 57 -57 25
-121 55 -143 69 -38 24 -39 24 -32 75 3 29 6 60 6 69 0 9 9 18 22 20 24 3 62
53 99 128 12 25 46 82 76 127 59 88 59 91 37 203 -10 56 11 24 34 -50 11 -36
25 -92 32 -125 11 -50 46 -140 79 -205 12 -22 172 -32 296 -18 55 6 162 13
239 15 139 4 186 16 186 47 0 6 9 19 20 29 11 9 20 26 20 37 0 11 5 20 10 20
6 0 10 11 10 25 0 18 -5 25 -20 25 -17 0 -19 4 -14 27 6 24 5 26 -17 19 -13
-4 -44 -7 -69 -7 -40 1 -51 -4 -95 -44 -45 -40 -55 -44 -101 -45 -28 0 -71 7
-95 16 -29 11 -79 17 -144 18 l-100 2 -6 71 c-4 39 -17 101 -29 137 -12 37
-20 83 -19 104 4 50 -10 141 -27 174 -21 41 -62 67 -115 74 -27 4 -49 10 -49
15 0 14 60 10 105 -6 56 -21 74 -19 85 9 5 13 14 27 20 31 5 3 8 9 6 13 -6 10
16 37 37 45 15 6 17 14 11 53 -5 38 -3 51 14 74 18 23 21 40 19 97 -3 65 -5
70 -43 106 -56 56 -108 79 -186 85 -63 4 -68 3 -108 -29 -76 -62 -109 -143
-92 -230 25 -128 -39 -189 -200 -190 -115 -1 -180 -31 -375 -173 -107 -78
-222 -159 -268 -189 -27 -18 -67 -55 -90 -83 -22 -29 -77 -94 -123 -145 -46
-52 -103 -124 -129 -162 -27 -40 -67 -82 -98 -105 -29 -20 -73 -64 -97 -97
-62 -84 -81 -95 -138 -80 -61 17 -180 63 -207 81 -13 8 -20 20 -17 29 4 9 0
15 -7 15 -8 0 -24 16 -36 35 -28 42 -85 73 -147 78 -44 4 -53 11 -205 156
-148 142 -182 171 -253 214 -39 24 -144 185 -129 200 6 6 11 16 11 23 0 13
-71 87 -120 126 -19 15 -63 53 -96 85 -69 65 -171 122 -235 130 -34 5 -39 8
-24 14 11 4 32 8 47 8 22 1 29 7 38 39 6 20 14 63 17 94 5 51 3 61 -20 91 -31
41 -36 92 -14 139 23 48 14 66 -47 94 -40 19 -67 24 -126 23 -41 0 -86 -4
-100 -8z m-333 -788 c-3 -10 -5 -2 -5 17 0 19 2 27 5 18 2 -10 2 -26 0 -35z
m650 -99 c-3 -3 -12 -4 -19 -1 -8 3 -5 6 6 6 11 1 17 -2 13 -5z m83 -84 c13
-19 46 -61 74 -94 43 -50 51 -56 61 -42 7 9 15 16 18 16 19 0 115 -78 129
-105 27 -52 97 -106 263 -204 159 -94 231 -158 261 -231 7 -17 20 -33 28 -36
25 -10 160 -7 201 4 46 13 84 4 203 -48 82 -35 104 -35 112 -2 5 24 54 61 65
50 4 -3 -10 -27 -29 -53 -38 -49 -42 -60 -26 -70 5 -3 7 -12 3 -20 -3 -10 1
-15 15 -15 11 0 23 8 27 18 9 27 74 96 82 88 4 -4 -2 -25 -15 -46 -25 -45 -28
-60 -8 -60 8 0 29 29 47 65 19 36 38 65 43 65 4 0 5 -8 1 -17 -17 -45 -18 -73
-1 -73 9 0 16 7 16 16 0 8 14 47 30 86 17 38 30 84 30 100 0 18 11 43 25 60
37 43 172 155 227 187 42 24 128 114 128 133 0 5 33 23 73 42 39 19 88 41 107
50 100 47 128 73 130 126 0 14 9 36 20 50 16 21 19 22 15 5 -2 -11 -9 -45 -15
-75 -6 -30 -17 -84 -25 -120 -8 -36 -22 -102 -31 -147 l-17 -83 -80 -77 c-96
-94 -120 -124 -140 -183 -8 -25 -32 -92 -52 -150 -35 -98 -105 -339 -105 -360
0 -6 10 -10 23 -10 20 0 60 -9 180 -41 23 -6 37 -16 37 -25 0 -12 -5 -14 -17
-8 -10 4 -58 18 -108 31 -71 19 -91 21 -100 11 -7 -7 -17 -62 -23 -123 -6 -60
-17 -128 -24 -150 -11 -35 -20 -42 -68 -61 -30 -12 -73 -30 -95 -40 -59 -28
-234 -209 -353 -368 -64 -85 -112 -136 -127 -136 -6 0 -28 -9 -49 -20 -27 -13
-44 -16 -56 -10 -19 10 -60 2 -60 -11 0 -15 -56 -10 -142 12 -45 12 -94 22
-110 23 -39 3 -115 89 -173 196 -56 106 -114 195 -186 291 -31 41 -72 110 -90
153 -25 58 -49 94 -92 138 -96 99 -241 269 -294 349 -49 72 -99 127 -107 118
-2 -2 -15 -24 -29 -49 -57 -105 -72 -130 -79 -130 -15 0 -8 18 42 106 27 49
50 93 50 97 0 5 -15 34 -34 65 -19 32 -42 83 -52 115 -17 55 -17 61 0 144 10
47 33 119 52 159 37 76 134 355 134 382 0 13 3 13 18 -4 10 -10 28 -35 42 -54z
m2405 -432 c13 -5 3 -6 -25 -2 -25 4 -54 10 -65 15 -12 5 -3 6 25 2 25 -3 54
-10 65 -15z m-2925 -17 c63 -11 115 -29 107 -37 -3 -3 -30 1 -60 10 -30 9 -85
16 -122 16 -41 0 -64 4 -60 10 8 12 63 13 135 1z m13 -488 c-13 -2 -35 -2 -50
0 -16 2 -5 4 22 4 28 0 40 -2 28 -4z"/>
</g>
</svg>
