<?xml version="1.0" encoding="UTF-8" standalone="no"?>
<!-- Created with Inkscape (http://www.inkscape.org/) -->

<svg
   version="1.1"
   id="svg9"
   width="980.75671"
   height="512.10675"
   viewBox="0 0 980.75669 512.10674"
   sodipodi:docname="lucille.png"
   xmlns:inkscape="http://www.inkscape.org/namespaces/inkscape"
   xmlns:sodipodi="http://sodipodi.sourceforge.net/DTD/sodipodi-0.dtd"
   xmlns="http://www.w3.org/2000/svg"
   xmlns:svg="http://www.w3.org/2000/svg">
  <defs
     id="defs13" />
  <sodipodi:namedview
     id="namedview11"
     pagecolor="#ffffff"
     bordercolor="#000000"
     borderopacity="0.25"
     inkscape:showpageshadow="2"
     inkscape:pageopacity="0.0"
     inkscape:pagecheckerboard="0"
     inkscape:deskcolor="#d1d1d1"
     showgrid="false" />
  <g
     inkscape:groupmode="layer"
     inkscape:label="Image"
     id="g15"
     transform="translate(-202.87415,-107.38096)">
    <path
       style="fill:#000000;stroke-width:0.864865"
       d="m 203.45073,618.80437 c -0.31712,-0.3171 -0.57658,-67.6468 -0.57658,-149.62165 V 320.13771 l 51.67567,0.015 c 56.67409,0.0164 58.96245,0.18673 68.97297,5.13186 20.63245,10.19226 28.38726,31.0739 28.44057,76.58285 0.027,23.03775 -1.46355,32.57791 -6.76623,43.30716 -2.86783,5.80264 -8.83326,12.51044 -14.20093,15.96809 l -2.04011,1.31416 4.56858,3.43507 c 8.88572,6.68091 13.30077,16.32216 14.45796,31.57215 0.34168,4.50292 0.50806,33.77634 0.36973,65.05192 l -0.25152,56.8649 h -31.53227 -31.53226 l -0.0488,-62.054 c -0.036,-45.7458 -0.3201,-62.82827 -1.08108,-65.00003 -1.51279,-4.31741 -4.83709,-6.38833 -10.96659,-6.83166 l -5.20081,-0.37621 v 67.1309 67.131 h -31.85586 c -17.52072,0 -32.11532,-0.2593 -32.43243,-0.5766 z m 59.09909,-71.7454 v -67.13281 l 7.56757,0.3802 c 10.09238,0.50698 14.94049,2.63507 17.67499,7.75853 l 2.00069,3.74849 0.23858,61.18919 0.23857,61.1892 h 26.35602 26.35601 l -0.015,-59.4595 c -0.0162,-64.12606 -0.15595,-66.40983 -4.60086,-75.18137 -3.9409,-7.77704 -10.12476,-12.23827 -19.60034,-14.14028 -7.6698,-1.53955 -7.70205,-1.73942 -0.68432,-4.24095 15.64033,-5.5751 23.09131,-14.43832 26.89384,-31.99127 1.51599,-6.99805 1.79121,-11.23736 1.773,-27.31096 -0.041,-36.22156 -5.02116,-55.19965 -17.40581,-66.32945 -3.9788,-3.57567 -6.90155,-5.23174 -13.96078,-7.91044 -4.69118,-1.78011 -6.31437,-1.84155 -55.64295,-2.10583 l -50.81081,-0.27223 v 144.47109 144.47119 h 26.81081 26.81081 v -67.1328 z m 0.86487,-143.02937 v -29.4054 h 10.42133 c 10.78078,0 13.51181,0.6667 16.569,4.04486 2.74607,3.03438 4.1448,11.15488 4.1448,24.06324 0,13.04614 -1.23699,20.08571 -4.44021,25.26859 -2.84263,4.59952 -5.40852,5.43412 -16.70603,5.43412 h -9.98889 z m 20.41678,23.28095 c 3.66096,-3.0227 5.00773,-8.44938 5.3669,-21.62542 0.37765,-13.85402 -0.69296,-21.53778 -3.37458,-24.21939 -1.38176,-1.38176 -2.92701,-1.65235 -9.43613,-1.65235 h -7.78378 v 24.75977 24.75979 l 6.87083,-0.39775 c 4.11667,-0.23836 7.46646,-0.8896 8.35676,-1.62465 z m 83.07871,191.49382 c -0.31712,-0.3171 -0.57658,-67.6468 -0.57658,-149.62165 V 320.13771 h 61.83784 61.83784 v 30.7027 30.70271 H 461.0363 432.06333 v 26.37837 26.37838 h 27.67568 27.67567 v 30.27027 30.27027 h -27.67567 -27.67568 v 31.13514 31.13512 h 30.7027 30.70271 v 31.1351 31.1352 h -62.99099 c -34.64505,0 -63.25045,-0.2595 -63.56757,-0.5766 z m 121.36937,-30.5586 v -25.9459 h -30.7027 -30.70271 v -36.31222 -36.31213 l 27.45946,-0.22841 27.45946,-0.22832 v -25.08108 -25.08108 l -27.45946,-0.22833 -27.45946,-0.22841 v -31.12298 -31.12298 h 28.97298 28.97297 V 350.84041 325.3269 h -56.64865 -56.64865 v 143.85582 c 0,79.12075 0.25946,144.11535 0.57658,144.43245 0.31711,0.3171 26.58738,0.5766 58.37838,0.5766 h 57.8018 z m 19.89186,-1.3981 c 0,-32.0427 -0.026,-32.5265 -1.7194,-32.0837 -2.8721,0.7511 -5.89034,-2.3889 -6.55468,-6.819 -0.46031,-3.06953 -0.0753,-5.50837 1.76045,-11.1517 2.07013,-6.36376 2.27693,-7.9987 1.73843,-13.74503 -0.6077,-6.48467 -0.5957,-6.53752 2.082,-9.21522 l 2.6932,-2.69319 v -95.50106 -95.50106 h 32.00003 32 v 40.82417 40.82418 l 3.4595,-3.37808 c 1.9027,-1.85794 3.4595,-3.75703 3.4595,-4.22021 0,-0.93599 5.9778,-9.88766 11.0173,-16.49811 3.091,-4.05451 3.8055,-4.47474 13.2342,-7.78379 10.9342,-3.83738 16.397,-7.41157 16.3971,-10.72818 0,-1.1226 -1.1081,-4.23611 -2.4625,-6.91892 -4.5662,-9.04467 -5.3213,-11.38832 -5.3213,-16.51648 0,-6.13507 2.2054,-9.3278 8.5007,-12.30609 5.8573,-2.77112 18.0766,-2.80456 23.2202,-0.0636 4.4548,2.37396 5.2623,4.53437 3.0787,8.23763 -1.9949,3.38329 -1.4608,7.8473 1.3695,11.44541 2.1639,2.75093 2.3524,6.33245 0.7049,13.39306 -1.0922,4.68046 -1.1565,4.75194 -4.8396,5.3807 -5.0291,0.85853 -5.1186,1.21225 -0.4676,1.84973 3.3639,0.46108 11.5878,4.21107 14.8182,6.75692 1.2162,0.95842 1.4487,-0.66519 3.7981,-26.5146 0.9944,-10.94054 1.9876,-20.76757 2.2073,-21.83784 l 0.3993,-1.94595 h 52.3079 c 52.2953,0 52.3078,4.4e-4 52.3078,1.78756 0,2.21051 11.0199,118.32704 11.7093,123.38087 l 0.4986,3.65492 3.1934,-2.12419 c 1.7563,-1.16843 4.5555,-4.16398 6.2203,-6.65695 1.6649,-2.49289 6.0433,-8.12446 9.7298,-12.51442 l 6.7027,-7.98183 v -49.77296 -49.77298 h 31.1351 31.1351 v 27.80327 27.80326 l 7.4288,-0.57102 c 11.7916,-0.90637 10.7334,1.92574 10.7334,-28.72655 v -26.38695 l 50.3784,0.28852 c 49.1202,0.2813 50.5295,0.33614 56.4324,2.19585 10.71876,3.37698 16.70146,6.88556 23.77926,13.9454 10.4414,10.41496 16.1523,23.73113 18.064,42.12023 1.2579,12.10056 2.0737,155.54831 0.956,168.12258 -3.1197,35.0989 -13.7775,55.5059 -34.109,65.3104 -13.77666,6.6435 -14.50686,6.7196 -68.14966,7.1049 l -47.3514,0.3401 v -42.4317 c 0,-23.3375 -0.3121,-42.43181 -0.6936,-42.43181 -0.77,0 -11.5722,7.17077 -15.1591,10.06288 l -2.2903,1.84673 -0.2258,36.2074 -0.2258,36.2073 -30.9189,0.2272 -30.9189,0.2272 v -30.7137 c 0,-16.8925 -0.174,-30.7136 -0.3867,-30.7136 -0.2126,0 -2.918,1.916 -6.0119,4.2578 -3.0939,2.3417 -6.2325,4.5975 -6.9747,5.0129 -1.2123,0.6784 -1.103,3.3237 1.0766,26.047 1.3343,13.9105 2.2469,25.4709 2.028,25.6897 -0.2189,0.2189 -13.9046,0.398 -30.4127,0.398 h -30.0147 l -0.528,-4.1081 c -0.2904,-2.2595 -0.785,-7.8719 -1.0991,-12.4721 -0.3141,-4.6001 -0.8761,-8.8574 -1.2489,-9.4606 -0.5135,-0.8308 -2.242,-0.3235 -7.1329,2.0937 -9.0493,4.4724 -9.8499,4.337 -14.289,-2.4148 -3.0607,-4.6554 -3.5979,-6.0842 -3.1702,-8.4324 0.4553,-2.4999 0.03,-3.3545 -3.6753,-7.3794 l -4.1903,-4.552 -1.5581,22.7142 c -0.8569,12.4928 -1.7367,23.0061 -1.9551,23.3628 -0.2183,0.3568 -14.1672,0.6487 -30.9976,0.6487 -16.8303,0 -30.7538,-0.2919 -30.9411,-0.6487 -0.1872,-0.3567 1.9324,-23.9556 4.7103,-52.4418 4.7886,-49.10605 4.9719,-51.85441 3.5326,-52.97104 -0.8349,-0.6477 -5.3493,-3.78984 -10.032,-6.98257 l -8.5139,-5.80506 0.5594,-3.49432 c 1.3803,-8.6208 1.549,-11.26988 0.6634,-10.41332 -0.4918,0.47568 -1.5096,4.50076 -2.2618,8.94461 -0.7918,4.67814 -2.5957,10.86798 -4.2848,14.7027 -1.6045,3.64264 -4.2159,9.73648 -5.8031,13.54188 -1.5872,3.80541 -3.3668,7.46206 -3.9547,8.12593 -1.4475,1.63442 -7.9203,1.55001 -15.8905,-0.20722 -3.5675,-0.7866 -10.0865,-1.43066 -14.4865,-1.43118 h -8 v 16.86489 16.8649 h 30.2703 30.2703 v 27.6756 27.6757 h -62.2703 -62.27033 v -32.5333 z m 119.35143,4.8576 v -22.4865 h -30.2703 -30.2703 v -19.4594 -19.4595 h -21.9843 -21.98443 l -4.8264,4.41107 -4.8265,4.41116 v 37.53477 37.5349 h 57.08113 57.0811 z m 65.7555,20.973 c 0.014,-0.8325 0.7576,-11.0487 1.652,-22.7027 l 1.6262,-21.1892 -4.8221,-4.3243 c -12.0039,-10.7648 -13.9888,-12.8857 -16.4125,-17.5367 -1.4186,-2.72245 -3.0977,-6.89577 -3.7314,-9.27415 -0.8785,-3.29721 -2.2945,-5.46768 -5.9613,-9.13782 -4.7689,-4.77318 -13.8793,-11.48566 -14.6046,-10.76038 -0.2771,0.2771 -9.4724,91.66725 -9.6379,95.79005 -0.014,0.3568 11.6496,0.6487 25.9199,0.6487 24.124,0 25.9477,-0.1063 25.9717,-1.5135 z m 61.6669,-3.0271 c -0.6604,-6.0448 -2.8126,-10.7538 -6.742,-14.7508 -2.6066,-2.6515 -3.765,-3.2401 -5.9581,-3.0271 -1.4973,0.1454 -2.6612,0.6536 -2.5865,1.1293 0.075,0.4757 0.4105,5.1459 0.7463,10.3784 0.3358,5.2324 0.7841,9.8054 0.9963,10.1621 0.2122,0.3568 3.458,0.6487 7.213,0.6487 h 6.8271 z m 36.5931,0.8649 c -0.2778,-2.0216 -1.1221,-10.6811 -1.8762,-19.2432 -1.4955,-16.9809 -1.8536,-19.464 -2.8044,-19.4506 -0.3477,0.01 -4.6336,3.7995 -9.5242,8.4325 l -8.8921,8.4235 -0.5199,6.5583 c -0.5916,7.4607 0.4627,11.7645 3.9548,16.1444 l 2.2411,2.8107 8.963,10e-5 h 8.9631 z m 72.0926,-28.0649 c 0,-21.402 -0.285,-31.4555 -0.8749,-30.8656 -0.4811,0.4811 -1.746,2.4742 -2.8108,4.4291 -1.0648,1.9548 -3.1035,5.2103 -4.5305,7.2344 -1.8776,2.6632 -2.7141,5.0099 -3.0271,8.4921 -0.34,3.7834 -0.7724,4.8767 -2.0231,5.1149 -2.0904,0.3983 -5.1608,-2.5653 -7.0898,-6.843 -1.5272,-3.3868 -1.5206,-3.4918 0.466,-7.4696 1.576,-3.1556 2.1363,-6.0942 2.5724,-13.4902 0.694,-11.7704 1.4135,-12.51773 11.4257,-11.86665 1.2782,0.083 3.1268,-0.27849 4.1081,-0.80364 1.7205,-0.92082 1.784,-1.64367 1.784,-20.29924 v -19.34435 l -2.694,-0.93915 c -1.4816,-0.5165 -3.0132,-0.7418 -3.4034,-0.50059 -0.3903,0.24121 -1.5426,2.66898 -2.5608,5.39503 -3.1175,8.34698 -4.4085,10.57816 -6.1208,10.57816 -1.0463,0 -3.4433,2.64614 -6.8551,7.56757 -2.8855,4.16216 -7.8719,11.35144 -11.0809,15.97613 -7.3636,10.61206 -10.0458,13.45773 -14.6364,15.52813 l -3.6756,1.6578 v 31.0946 31.0947 h 25.5135 25.5135 z m 123.6757,29.6603 c 28.25496,-6.4652 41.90416,-26.8771 44.91456,-67.16849 0.5683,-7.60545 0.6138,-38.64008 0.1317,-89.88635 -0.8012,-85.1782 -0.7147,-83.75801 -5.8958,-96.86487 -6.2481,-15.80604 -17.7025,-26.08535 -34.39376,-30.86551 -4.5525,-1.30379 -10.9455,-1.52346 -52.1081,-1.79045 l -46.9189,-0.30435 0.015,11.07475 0.015,11.07475 1.7338,-2.7061 c 0.9536,-1.48835 3.2826,-3.77944 5.1756,-5.0913 3.1052,-2.15188 3.9743,-2.34245 8.8854,-1.94825 6.4801,0.52017 10.1447,2.21773 15.095,6.99275 3.5794,3.45267 3.6756,3.6918 3.6756,9.13515 0,4.06267 -0.4045,6.03664 -1.4807,7.22586 -1.0781,1.19129 -1.4276,2.9048 -1.2855,6.30164 0.1613,3.85375 -0.097,4.8218 -1.4842,5.56424 -0.9237,0.49435 -2.5547,2.65142 -3.6246,4.7935 -1.9733,3.95106 -3.6123,4.72292 -6.6683,3.14036 -0.8012,-0.41488 -3.3053,-1.02251 -5.5648,-1.35029 -4.898,-0.71057 -5.6641,0.75553 -0.8648,1.65527 8.3263,1.56099 11.5419,6.12889 11.914,16.92401 0.1505,4.36594 1.0091,9.87687 2.0968,13.45778 1.013,3.33535 2.1183,8.57038 2.4561,11.63347 l 0.6142,5.56921 5.7167,-0.29725 c 3.3875,-0.17618 7.9088,0.2643 11.0968,1.08108 2.9592,0.75805 5.5434,1.37833 5.7428,1.37833 0.1994,0 0.3626,-13.42703 0.3626,-29.83784 v -29.83783 h 7.3088 c 9.7287,0 15.5299,1.33252 18.9767,4.35885 5.4121,4.75183 5.1961,1.20018 5.5204,90.77628 0.1628,44.95135 0.053,83.7533 -0.2442,86.2266 -0.6931,5.7705 -3.344,9.7065 -8.1844,12.1518 -3.3168,1.6756 -5.2082,1.9459 -13.6146,1.9459 h -9.7627 V 504.6926 442.76102 l -2.3784,0.70097 c -3.3517,0.98793 -28.9585,1.03403 -30.2882,0.0545 -1.7988,-1.32506 -6.7446,-12.71594 -7.9447,-18.29778 -1.7149,-7.97647 -4.6124,-16.86486 -5.4977,-16.86486 -0.4375,0 -0.5266,0.87567 -0.1981,1.94594 0.3286,1.07028 0.8127,3.79399 1.0757,6.05276 0.4471,3.83931 0.1895,4.5466 -3.956,10.86089 l -4.4343,6.75416 v 16.93362 16.93371 l 5.6974,2.42136 c 5.4286,2.3072 5.674,2.53821 5.2022,4.89704 -0.2959,1.47944 -0.1612,2.26932 0.3347,1.96281 2.9133,-1.80048 28.6421,18.23766 29.9116,23.29583 0.7825,3.11809 -1.9866,8.09366 -5.5892,10.04281 -1.7183,0.92964 -4.0972,2.41946 -5.2864,3.3107 -5.1672,3.87269 -14.8645,9.71503 -22.2703,13.41725 l -8,3.99931 v 41.56773 41.5678 l 43.8919,-0.361 c 37.4789,-0.3082 44.8397,-0.5778 50.3784,-1.8452 z m -240.5333,-31.2963 c 2.1822,-1.0887 3.0233,-1.1577 4.0204,-0.3301 0.9954,0.8261 1.6717,0.7805 3.2112,-0.2163 1.0727,-0.6946 2.9233,-1.5221 4.1125,-1.8389 2.916,-0.777 4.9801,-2.6514 9.5487,-8.6712 2.1212,-2.795 4.6351,-6.1049 5.5864,-7.3551 0.9514,-1.2503 3.4852,-4.1046 5.6308,-6.3428 7.338,-7.655 7.1046,-3.9615 2.9572,-46.79718 -2.0183,-20.84567 -3.886,-38.11754 -4.1505,-38.38201 -0.2644,-0.26448 -0.9373,0.52091 -1.4952,1.74547 -1.4576,3.19887 -3.2657,3.58564 -4.2809,0.91554 -0.6809,-1.79087 -0.4659,-2.86702 1.0764,-5.38888 1.06,-1.7331 2.4978,-3.73492 3.1951,-4.44843 1.1158,-1.14163 1.086,-1.33233 -0.2482,-1.58937 -1.9319,-0.37206 -4.6712,2.08087 -5.0147,4.49047 -0.3436,2.40994 -3.1416,2.16597 -9.9423,-0.86694 -7.6765,-3.42357 -14.0205,-5.46699 -14.5106,-4.6739 -0.7445,1.20458 -6.6462,2.08397 -12.7847,1.90503 -3.2108,-0.0936 -5.8378,0 -5.8378,0.20264 0,0.20497 1.1676,13.67689 2.5946,29.93747 1.427,16.26058 2.5946,29.9181 2.5946,30.34992 0,0.44204 -6.9922,0.78522 -16,0.78522 h -16 l 0.047,-2.81082 c 0.026,-1.54594 1.3352,-19.93513 2.9094,-40.86486 3.1015,-41.23546 3.1425,-40.13967 -1.5572,-41.61003 -3.0947,-0.96822 -14.6487,-8.71473 -17.5148,-11.74296 -1.4905,-1.57475 -3.2419,-3.89873 -3.8919,-5.16437 -0.6501,-1.26556 -3.248,-3.68701 -5.7732,-5.38102 -3.7521,-2.51701 -4.8747,-2.903 -6.1416,-2.11174 -1.3003,0.81202 -2.0425,0.43122 -4.6007,-2.3603 l -3.0503,-3.32842 -0.5123,3.41698 c -0.2818,1.87935 -1.9455,18.50984 -3.6971,36.95663 -2.6055,27.44034 -2.9906,33.9021 -2.1176,35.53332 1.2922,2.41453 17.7041,21.56462 24.2941,28.34733 3.362,3.46041 5.5959,6.85656 7.68,11.67567 1.6209,3.74815 5.8138,10.65773 9.3494,15.40705 3.5258,4.73609 8.1993,11.93609 10.3856,15.99999 6.005,11.162 4.6834,10.4159 18.4512,10.4159 h 11.884 l 0.6204,7.1352 c 0.3412,3.9243 0.7939,7.427 1.0059,7.7837 0.6624,1.1144 5.083,0.7105 7.9664,-0.7279 z m -13.9828,-4.7489 c -0.2605,-1.942 -0.6526,-3.7098 -0.8714,-3.9286 -0.2187,-0.2188 -3.6428,-0.2839 -7.609,-0.1447 l -7.2113,0.2528 2.6401,2.9504 c 1.9353,2.1627 3.6586,3.1151 6.4552,3.5674 7.2728,1.1763 7.1241,1.2371 6.5964,-2.6973 z m 234.6826,-15.9587 c 5.8273,-3.0135 5.5377,0.1459 5.8032,-63.30461 l 0.24,-57.35827 -1.7535,1.09509 c -0.9644,0.6023 -1.7535,1.30976 -1.7535,1.57216 0,0.26231 -3.9892,0.46062 -8.8649,0.44056 l -8.8649,-0.0363 -0.2239,58.81081 c -0.1231,32.34595 -0.017,59.35236 0.236,60.01426 0.5964,1.5602 11.4906,0.6749 15.1815,-1.2337 z m -164.1271,-26.35914 4.0687,-1.79978 v -45.85626 -45.85626 l -2.5025,1.78197 c -1.3764,0.98006 -4.2953,3.60043 -6.4865,5.82296 -2.9867,3.02945 -3.984,4.70348 -3.984,6.68705 0,3.62084 -5.3342,16.91753 -6.7965,16.94166 -1.1419,0.019 -1.0062,-1.86041 0.3989,-5.52199 1.0495,-2.73504 -1.1007,-1.30447 -2.5233,1.67871 -1.9643,4.11917 -1.9044,5.70534 1.5666,41.48419 1.6612,17.12432 3.0226,31.63425 3.0252,32.24424 0,0.60999 2.0658,-0.44696 4.5847,-2.3488 2.519,-1.90184 6.4109,-4.26785 8.6487,-5.25769 z m 81.2579,-19.80419 c 2.4788,-2.2586 3.2432,-3.61894 3.2432,-5.77159 0,-2.47853 -0.3372,-2.88796 -2.8108,-3.41293 -1.546,-0.32804 -5.4786,-1.72117 -8.7392,-3.0957 -3.2606,-1.37462 -6.0823,-2.49929 -6.2703,-2.49929 -0.188,0 -0.3376,6.90811 -0.3323,15.35136 l 0.01,15.35135 5.8283,-6.48398 c 3.2055,-3.56627 7.2877,-7.81388 9.0715,-9.43922 z m -69.8111,7.14551 c 0.6656,-3.7344 1.2237,-8.78547 1.2403,-11.22456 0.042,-6.20281 1.2153,-7.01336 8.0942,-5.59256 2.9369,0.60661 6.6739,1.66036 8.3046,2.3417 3.2381,1.353 5.8143,0.28947 2.9675,-1.22508 -1.9182,-1.02045 -11.6683,-3.51282 -15.7533,-4.02689 -1.5971,-0.201 -3.0872,-0.54893 -3.3114,-0.77311 -0.9316,-0.93163 10.3319,-36.47481 14.8989,-47.01491 0.6624,-1.52883 4.6446,-6.09427 8.8493,-10.14539 8.1645,-7.86655 8.7834,-9.07105 10.5555,-20.54443 0.3894,-2.52151 1.3397,-7.30897 2.1116,-10.6387 0.772,-3.32973 1.7517,-7.80541 2.1771,-9.94595 0.7589,-3.81822 0.7444,-3.85602 -0.7643,-1.99665 -0.8458,1.04238 -1.7888,3.46477 -2.0956,5.38308 -0.485,3.03279 -1.1582,3.87198 -5.1603,6.43212 -2.5315,1.61929 -5.5447,3.23987 -6.6961,3.60113 -5.1537,1.61712 -13.4434,6.54798 -14.7936,8.79948 -2.2213,3.70413 -7.3096,8.57582 -10.2133,9.77859 l -2.6,1.07693 v 46.74197 c 0,25.70802 0.2202,46.52168 0.4893,46.25254 0.2692,-0.26915 1.034,-3.54482 1.6996,-7.27931 z m -87.8066,-3.97907 c 0,-1.54595 -1.19,-16.62703 -2.6495,-33.51351 l -2.6535,-30.7027 -3.8337,-3.67568 c -2.1086,-2.02162 -4.3297,-3.67568 -4.9357,-3.67568 -0.8334,0 -1.7516,8.90863 -3.7661,36.54054 -1.4653,20.0973 -2.5046,36.83244 -2.3097,37.18919 0.1949,0.35676 4.8071,0.64865 10.2493,0.64865 h 9.8949 z m -182.9229,-3.74512 c 3.8054,-1.32524 10.4216,-3.22379 14.7027,-4.2189 l 7.7838,-1.80938 0.2202,-91.00515 0.2202,-91.00523 h -26.8148 -26.81483 v 93.83784 93.83783 h 2.1549 c 1.2696,0 2.6019,0.74802 3.2432,1.82089 1.0209,1.70802 1.6249,1.79399 9.73713,1.38629 6.3829,-0.32069 10.4612,-1.06586 15.5675,-2.84419 z m 49.5371,-14.8333 0.2398,-12.28653 3.2197,-0.832 c 1.7708,-0.45769 4.971,-1.20649 7.1115,-1.66409 l 3.8919,-0.83208 -3.2007,-0.0926 c -1.7603,-0.051 -5.2138,0.33911 -7.6743,0.86677 -3.6144,0.77518 -4.6301,0.73366 -5.2886,-0.21622 -1.1543,-1.66504 -0.1087,-21.83239 1.4194,-27.37885 0.6943,-2.51987 2.9262,-8.06582 4.9599,-12.32433 l 3.6975,-7.7427 5.638,-0.11018 5.638,-0.11019 -5.4054,-0.83018 c -2.973,-0.45665 -5.4054,-1.15425 -5.4054,-1.55027 0,-0.39602 3.9892,-1.04311 8.8649,-1.43801 l 8.8648,-0.71793 -9.081,-0.43243 -9.0811,-0.43243 -0.5476,-3.89189 c -0.9036,-6.42162 -3.3505,-16.56646 -4.4637,-18.50685 -0.672,-1.17128 -1.032,-5.81491 -1.0125,-13.06072 l 0.03,-11.24324 -1.0464,6.91892 c -0.5755,3.8054 -1.0756,8.90967 -1.1114,11.34282 -0.087,5.92244 -2.585,9.32528 -6.254,8.51941 -4.2581,-0.93522 -5.0523,0.5427 -5.0692,9.43281 -0.01,4.3418 -0.5527,10.4301 -1.2098,13.52952 -0.6571,3.0995 -1.4703,7.84086 -1.8071,10.53639 l -0.6123,4.90101 3.3623,0.90534 c 5.472,1.47347 6.5635,2.7213 6.9509,7.94629 0.4066,5.48394 -1.927,10.29181 -4.9953,10.29181 -1.5625,0 -1.7329,-0.35624 -1.2411,-2.59529 0.4518,-2.05682 0.2417,-2.70434 -1.0124,-3.1206 -0.8703,-0.28895 -3.2322,-1.26158 -5.2486,-2.16147 -2.0164,-0.89989 -3.8651,-1.63615 -4.1081,-1.63615 -0.243,0 -0.4419,10.86305 -0.4419,24.14019 v 24.1402 l 3.6757,0.54858 c 5.7867,0.86357 12.2038,2.35209 13.6216,3.15952 3.4898,1.98764 3.8814,0.85293 4.1317,-11.97232 z m 306.2971,6.98984 c 0.735,-0.65125 -1.2845,-1.81267 -4.0504,-2.32952 -2.5666,-0.47948 -2.8108,-0.33574 -2.8108,1.65458 0,2.04644 0.1983,2.14391 3.2432,1.59342 1.7838,-0.3225 3.4119,-0.73582 3.618,-0.91848 z m 1.1895,-18.44238 c 1.2802,-3.79269 2.305,-7.39269 2.2774,-8 -0.073,-1.58824 -4.7955,8.73954 -5.5268,12.08501 -1.1847,5.41968 0.9446,2.74284 3.2494,-4.08501 z m -259.6706,-5.92986 c 4.228,-8.1075 4.2931,-8.17695 6.1159,-6.5274 0.8866,0.80251 1.65,1.30137 1.6962,1.10876 0.046,-0.19269 1.717,-16.8435 3.7127,-37.00194 3.6155,-36.51926 3.6225,-36.65945 1.9393,-38.79937 l -1.6894,-2.14768 -4.9248,14.58311 c -2.7086,8.02076 -5.9932,16.84368 -7.299,19.60657 -2.4039,5.08619 -4.7959,14.57747 -4.7959,19.02997 0,3.50876 2.5242,10.7763 5.3465,15.39364 1.3405,2.19313 2.4261,4.52826 2.4124,5.18919 -0.014,0.66093 -1.9166,4.50975 -4.2288,8.553 -2.3121,4.04324 -3.9966,7.69617 -3.7432,8.11762 0.5727,0.95273 2.6998,-1.81639 5.4581,-7.10547 z m -26.6385,0.97366 c -1.0637,-0.20531 -3.0097,-0.21059 -4.3243,-0.0121 -1.3147,0.19883 -0.4443,0.36679 1.934,0.37327 2.3784,0.009 3.4541,-0.15619 2.3903,-0.36143 z m 273.0692,-27.18356 V 444.445 l -1.7925,2.27874 c -0.9859,1.25336 -2.4973,2.27883 -3.3587,2.27883 -1.2886,0 -1.6724,0.992 -2.1656,5.59706 -0.3297,3.0784 -0.3498,6.00095 -0.045,6.49462 0.4328,0.70028 6.1117,4.11978 7.1453,4.30253 0.1189,0.0208 0.2162,-4.68454 0.2162,-10.45682 z m -115.1313,4.44194 c 2.3615,-2.29172 3.5637,-4.21163 3.5637,-5.69098 0,-2.47403 -10.885,-117.72609 -11.7354,-124.25591 l -0.535,-4.10811 h -47.4864 c -37.4152,0 -47.4853,0.22928 -47.4814,1.08108 0,0.5946 -1.0312,11.94288 -2.2977,25.2184 l -2.3027,24.1373 3.8112,3.4124 c 7.9199,7.09112 12.8923,12.15285 12.8923,13.12386 0,0.55293 -0.4345,1.43985 -0.9656,1.97092 -1.2704,1.27041 8.791,15.97334 12.0626,17.6272 3.3837,1.71061 6.0903,3.82157 11.1054,8.66144 l 4.4728,4.31646 0.5124,-4.58534 c 0.2819,-2.52195 1.0853,-12.95291 1.7854,-23.17994 0.7001,-10.22702 1.501,-20.63784 1.7798,-23.13513 l 0.5068,-4.54054 h 3.4244 c 1.9676,0 3.5801,0.45988 3.7904,1.08108 0.2014,0.59459 1.5502,15.09189 2.9974,32.21621 3.6141,42.76463 3.0423,39.35135 6.5919,39.35135 4.6608,0 9.3811,2.36437 12.1243,6.073 1.3831,1.86975 3.0274,3.40886 3.6541,3.42011 0.692,0.0121 0.9492,0.6195 0.6551,1.54612 -0.3155,0.9939 0.1918,1.94897 1.4552,2.7398 2.7043,1.6928 17.9771,6.95844 20.2136,6.969 1.0129,0.009 3.4453,-1.54759 5.4054,-3.44978 z m -151.6135,-16.01747 c -0.9151,-0.69232 -2.8611,-1.44337 -4.3244,-1.66893 -5.2706,-0.81262 -13.4713,-1.0048 -13.4713,-0.31567 0,0.38711 2.4324,0.72138 5.4054,0.74283 2.9729,0.0216 6.5729,0.57366 8,1.22707 1.427,0.65341 3.3729,1.20727 4.3243,1.23079 1.6993,0.0424 1.7004,0.0208 0.066,-1.21609 z m 236.4745,-3.87537 c -0.7135,-0.46115 -2.0756,-0.80554 -3.027,-0.76541 -1.425,0.0605 -1.3488,0.19495 0.4324,0.76541 3.0579,0.97929 4.11,0.97929 2.5946,0 z m -139.3359,-26.28575 c -1.0631,-12.17652 -2.0264,-22.04356 -2.1407,-21.9267 -0.2064,0.21104 -2.9558,34.69556 -2.9558,37.07386 0,1.31563 6.0376,7.98391 6.6628,7.3587 0.2016,-0.20169 -0.5032,-10.32926 -1.5663,-22.50586 z m 241.9446,14.54391 c 3.8712,-3.30724 5.1664,-3.93349 7.877,-3.80808 1.7843,0.0822 3.7305,0.11226 4.3251,0.0666 0.8225,-0.064 1.0799,-3.85894 1.0761,-15.86759 -0.01,-19.69054 -0.8172,-25.2214 -4.1931,-28.59734 -2.2671,-2.26701 -3.1924,-2.54241 -9.9614,-2.96472 l -7.4621,-0.46554 v 27.22101 c 0,14.97152 0.2595,27.48049 0.5766,27.79755 1.2851,1.28519 3.3549,0.38348 7.7618,-3.38145 z m -137.3634,-23.36655 c 2.2286,-1.28819 8.3331,-5.52088 13.5655,-9.40597 12.7084,-9.436 23.2555,-16.60679 25.4507,-17.30352 1.7609,-0.55891 1.7926,-1.02578 1.7926,-26.45662 V 325.3269 h -25.5135 -25.5135 v 44.1106 44.11063 l 3.0831,-3.41267 c 1.6957,-1.87696 4.9065,-4.46661 7.1351,-5.75479 z m -171.3173,-7.79251 c -0.2874,-0.28739 -1.0334,-0.31811 -1.6577,-0.0682 -0.6899,0.27608 -0.485,0.48102 0.5225,0.52252 0.9117,0.0375 1.4226,-0.16686 1.1352,-0.45425 z m 404.99086,73.17117 V 320.13771 h 61.4054 61.4054 v 30.69104 30.69105 l -28.7567,0.22787 -28.7568,0.22788 v 25.94594 25.94595 l 27.9031,0.22824 27.9031,0.22815 -0.2274,30.04212 -0.2274,30.04203 -27.9028,0.22824 -27.9028,0.22815 0.2271,30.90698 0.2271,30.90692 30.9189,0.2271 30.919,0.2272 v 31.1241 31.1243 h -63.5676 -63.5676 z m 121.946,118.48644 v -25.9459 h -31.1352 -31.1351 v -36.3123 -36.31239 l 27.8919,-0.22815 27.8919,-0.22824 v -25.08108 -25.08108 l -27.8919,-0.22824 -27.8919,-0.22815 v -31.12316 -31.12315 h 28.973 28.973 V 350.84041 325.3269 h -56.2163 -56.2162 v 144.43243 144.43244 h 58.3784 58.3784 z M 204.60388,205.11069 v -97.72973 h 19.45946 19.45946 v 81.29729 81.2973 h 19.89189 19.89189 v 16.43243 16.43243 h -39.35135 -39.35135 z m 85.12425,93.62162 c 0.29139,-2.25946 4.41052,-44.58379 9.1536,-94.05406 4.74309,-49.47027 8.84612,-91.6 9.11786,-93.62162 l 0.49406,-3.67567 33.02808,5.4e-4 33.02809,5.4e-4 8.99235,94.48595 c 4.94579,51.96726 9.18082,95.9454 9.41118,97.72918 l 0.41882,3.24324 h -18.58309 -18.58309 l -1.0309,-11.89189 c -0.56699,-6.54054 -1.25875,-13.75118 -1.53723,-16.02366 l -0.50635,-4.13176 -11.77733,0.23987 -11.77733,0.23988 -0.99995,13.4054 c -0.54998,7.37297 -1.03646,14.47568 -1.08108,15.78379 l -0.0811,2.37837 H 308.3065 289.19832 Z m 60.39801,-61.18919 c -3.33455,-41.70351 -8.36127,-96.19514 -8.92892,-96.79327 -0.44883,-0.47293 -0.90945,-0.29829 -1.14063,0.43243 -0.68752,2.17319 -7.3933,97.91945 -6.91247,98.69745 0.25541,0.41325 4.22752,0.64036 8.82692,0.50468 l 8.36256,-0.2467 z"
       id="path177"
       inkscape:export-filename="path177.png"
       inkscape:export-xdpi="96"
       inkscape:export-ydpi="96" />
  </g>
</svg>
