<svg viewBox="0 0 32 32" xmlns="http://www.w3.org/2000/svg"><path d="M25 4.03125C24.234375 4.03125 23.484375 4.328125 22.90625 4.90625L13 14.78125L12.78125 15L12.71875 15.3125L12.03125 18.8125L11.71875 20.28125L13.1875 19.96875L16.6875 19.28125L17 19.21875L17.21875 19L27.09375 9.09375C28.246094 7.941406 28.246094 6.058594 27.09375 4.90625C26.515625 4.328125 25.765625 4.03125 25 4.03125ZM25 5.96875C25.234375 5.96875 25.464844 6.089844 25.6875 6.3125C26.132813 6.757813 26.132813 7.242188 25.6875 7.6875L16 17.375L14.28125 17.71875L14.625 16L24.3125 6.3125C24.535156 6.089844 24.765625 5.96875 25 5.96875ZM4 8L4 28L24 28L24 14.8125L22 16.8125L22 26L6 26L6 10L15.1875 10L17.1875 8"/></svg>
